<?xml version="1.0" encoding="utf-8"?>

<!-- Generator: Adobe Illustrator 18.1.1, SVG Export Plug-In . SVG Version: 

6.00 Build 0) -->

<svg version="1.1" id="Layer_1" xmlns="http://www.w3.org/2000/svg" 

xmlns:xlink="http://www.w3.org/1999/xlink" x="0px" y="0px"

 width="218.8px" height="87.1px" viewBox="0 0 218.8 87.1" 

enable-background=

 "new 0 0 218.8 87.1" xml:space="preserve">

 <g>

 <path fill="#FFFFFF" stroke="#000000" stroke-miterlimit="10" 

d="M133.1,58.2c0,0,12.7-69.2,24.4-47.5c0,0,4.1,8.6,9.5,0.9

 c0,0,5-10,10.4,0.9c0,0,12.2,32.6,13.6,43c0,0,39.8,5.4,15.8,

 15.4c-13.2,5.5-53.8,13.1-77.4,5.9C129.5,76.8,77.5,61.4,133.1

 ,58.2z"/>

 <path fill="#FFFFFF" stroke="#000000" stroke-miterlimit="10" 

d="M6.7,61.4c0,0-3.3-55.2,20.8-54.8s-7.2,18.1,4.1,29.9

 s8.6-31.2,32.1-15.8S86.7,41,77.2,61.8C70.4,76.8,76.8,79,37.9,

 79c-0.4,0-0.9,0.1-1.3,0.1C9,81,40.1,58.7,40.1,58.7" />

 </g>

</svg>
 