<?xml version="1.0" encoding="iso-8859-1"?>
<!DOCTYPE svg PUBLIC "-//W3C//DTD SVG 20001102//EN" 
 "http://www.w3.org/TR/2000/CR-SVG-20001102/DTD/svg-20001102.dtd"> 

<svg width="100%" height="100%"> 
  <defs>
  <pattern id="gridPattern" 
           width="40" height="40"
           patternUnits="userSpaceOnUse">

     <rect x="0" y="0" 
           width="40" height="40"
           style="fill:none;stroke:blue;
           stroke-width:1;fill-opacity:.5;"/>
  </pattern>

   <linearGradient id="gradientDefinition1" 
                   gradientTransform="rotate(90)">
      <stop offset="0%"   stop-color="#C0C040"/>
      <stop offset="30%"  stop-color="#303000"/>
      <stop offset="60%"  stop-color="#FF0F0F"/>
      <stop offset="90%"  stop-color="#101000"/>
   </linearGradient> 
</defs>

<!-- *** render background grid *** -->
<g transform="translate(80,30)">
  <rect 
     fill="url(#gridPattern)"
     style="stroke:red;fill-opacity:.2" 
     x="0" y="0" width="600" height="400">
  </rect>
</g>

<!-- *** label vertical axis *** -->
<g transform="translate(30,400)">
  <text id="verticalLabel" x="0" y="0" 
        transform="rotate(-90)"
        fill="red" 
        font-size="18">
        Number of PCs Sold (millions) 
  </text>
</g>

<!-- *** unit label (vertical axis) *** -->
<g transform="translate(80,450)">
  <text id="horizontalLabel" x="0" y="0" 
        fill="blue" fill-opacity="1" 
        font-size="18">00</text>
</g>

<g transform="translate(50,400)">
  <text id="horizontalLabel" x="0" y="0" 
        fill="blue" fill-opacity="1" 
        font-size="18">10</text>
</g>

<g transform="translate(50,360)">
  <text id="horizontalLabel" x="0" y="0" 
        fill="blue" fill-opacity="1" 
        font-size="18">15</text>
</g>

<g transform="translate(50,320)">
  <text id="horizontalLabel" x="0" y="0" 
        fill="blue" fill-opacity="1" 
        font-size="18">20</text>
</g>

<g transform="translate(50,280)">
  <text id="horizontalLabel" x="0" y="0" 
        fill="blue" fill-opacity="1" 
        font-size="18">25</text>
</g>

<g transform="translate(50,240)">
  <text id="horizontalLabel" x="0" y="0" 
        fill="blue" fill-opacity="1" 
        font-size="18">30</text>
</g>

<g transform="translate(50,200)">
  <text id="horizontalLabel" x="0" y="0" 
        fill="blue" fill-opacity="1" 
        font-size="18">35</text>
</g>

<g transform="translate(50,160)">
  <text id="horizontalLabel" x="0" y="0" 
        fill="blue" fill-opacity="1" 
        font-size="18">40</text>
</g>

<g transform="translate(50,120)">
  <text id="horizontalLabel" x="0" y="0" 
        fill="blue" fill-opacity="1" 
        font-size="18">45</text>
</g>

<g transform="translate(50,80)">
  <text id="horizontalLabel" x="0" y="0" 
        fill="blue" fill-opacity="1" 
        font-size="18">50</text>
</g>

<g transform="translate(50,40)">
  <text id="horizontalLabel" x="0" y="0" 
        fill="blue" fill-opacity="1" 
        font-size="18">55</text>
</g>

<!-- *** label horizontal axis *** -->
<g transform="translate(300,500)">
  <text id="horizontalLabel" x="0" y="0" 
        fill="red" fill-opacity="1" 
        font-size="18">
        Current Year
  </text>
</g>

<!-- *** unit label (horizontal axis) *** -->
<g transform="translate(80,450)">
  <text id="horizontalLabel" x="0" y="0" 
        fill="blue" fill-opacity="1" 
        font-size="18">00</text>
</g>

<g transform="translate(120,450)">
  <text id="horizontalLabel" x="0" y="0" 
        fill="blue" fill-opacity="1" 
        font-size="18">01</text>
</g>

<g transform="translate(160,450)">
  <text id="horizontalLabel" x="0" y="0" 
        fill="blue" fill-opacity="1" 
        font-size="18">02</text>
</g>

<g transform="translate(200,450)">
  <text id="horizontalLabel" x="0" y="0" 
        fill="blue" fill-opacity="1" 
        font-size="18">03</text>
</g>

<g transform="translate(240,450)">
  <text id="horizontalLabel" x="0" y="0" 
        fill="blue" fill-opacity="1" 
        font-size="18">04</text>
</g>

<g transform="translate(280,450)">
  <text id="horizontalLabel" x="0" y="0" 
        fill="blue" fill-opacity="1" 
        font-size="18">05</text>
</g>

<g transform="translate(320,450)">
  <text id="horizontalLabel" x="0" y="0" 
        fill="blue" fill-opacity="1" 
        font-size="18">06</text>
</g>

<g transform="translate(360,450)">
  <text id="horizontalLabel" x="0" y="0" 
        fill="blue" fill-opacity="1" 
        font-size="18">07</text>
</g>

<g transform="translate(400,450)">
  <text id="horizontalLabel" x="0" y="0" 
        fill="blue" fill-opacity="1" 
        font-size="18">08</text>
</g>

<g transform="translate(440,450)">
  <text id="horizontalLabel" x="0" y="0" 
        fill="blue" fill-opacity="1" 
        font-size="18">09</text>
</g>

<g transform="translate(480,450)">
  <text id="horizontalLabel" x="0" y="0" 
        fill="blue" fill-opacity="1" 
        font-size="18">10</text>
</g>

<g transform="translate(520,450)">
  <text id="horizontalLabel" x="0" y="0" 
        fill="blue" fill-opacity="1" 
        font-size="18">11</text>
</g>

<g transform="translate(560,450)">
  <text id="horizontalLabel" x="0" y="0" 
        fill="blue" fill-opacity="1" 
        font-size="18">12</text>
</g>

<g transform="translate(600,450)">
  <text id="horizontalLabel" x="0" y="0" 
        fill="blue" fill-opacity="1" 
        font-size="18">13</text>
</g>

<g transform="translate(640,450)">
  <text id="horizontalLabel" x="0" y="0" 
        fill="blue" fill-opacity="1" 
        font-size="18">14</text>
</g>


<!-- *** render line graph *** -->

<!-- Company Name: Alpha -->
<g transform="translate(80,30)">
<path
  d="m0,350 
    l40,-40 40,-80  40,40  40,-80
     40,40  40,-120 40,-40 40,80
     40,-80 40,120  40,40  40,80
     40,80  40,-120 40,40" 
  stroke-width="6" stroke="red"
  fill="url(#gradientDefinition1)"
  fill-opacity="1"/>
</g>

<!-- Vertex circles (Alpha) -->
<g transform="translate(80,30)">
<circle cx="0"   cy="350" r="8" fill="red"/>
<circle cx="40"  cy="310" r="8" fill="red"/>
<circle cx="80"  cy="230" r="8" fill="red"/>
<circle cx="120" cy="270" r="8" fill="red"/>
<circle cx="160" cy="190" r="8" fill="red"/>
<circle cx="200" cy="230" r="8" fill="red"/>
<circle cx="240" cy="110" r="8" fill="red"/>
<circle cx="280" cy="70"  r="8" fill="red"/>
<circle cx="320" cy="150" r="8" fill="red"/>
<circle cx="360" cy="70"  r="8" fill="red"/>
<circle cx="400" cy="190" r="8" fill="red"/>
<circle cx="440" cy="230" r="8" fill="red"/>
<circle cx="480" cy="310" r="8" fill="red"/>
<circle cx="520" cy="390" r="8" fill="red"/>
<circle cx="560" cy="270" r="8" fill="red"/>
<circle cx="600" cy="310" r="8" fill="red"/>
</g>

<!-- Company Name: Beta -->
<g transform="translate(80,30)">
<path
  d="m0,280 
    l40,-40 40,-80  40,40  40,-80
     40,40  40,-100 40,80  40,80
     40,-80 40,120  40,40  40,80
     40,-50 40,-200 40,40" 
  stroke-width="6" stroke="green"
  style="fill:none;fill-opacity:1;"/>
</g>

<!-- Vertex circles (Beta) -->
<g transform="translate(80,30)">
<circle cx="0"   cy="280" r="8" fill="green"/>
<circle cx="40"  cy="240" r="8" fill="green"/>
<circle cx="80"  cy="160" r="8" fill="green"/>
<circle cx="120" cy="200" r="8" fill="green"/>
<circle cx="160" cy="120" r="8" fill="green"/>
<circle cx="200" cy="160" r="8" fill="green"/>
<circle cx="240" cy="60"  r="8" fill="green"/>
<circle cx="280" cy="140" r="8" fill="green"/>
<circle cx="320" cy="220" r="8" fill="green"/>
<circle cx="360" cy="140" r="8" fill="green"/>
<circle cx="400" cy="260" r="8" fill="green"/>
<circle cx="440" cy="300" r="8" fill="green"/>
<circle cx="480" cy="380" r="8" fill="green"/>
<circle cx="520" cy="330" r="8" fill="green"/>
<circle cx="560" cy="130" r="8" fill="green"/>
<circle cx="600" cy="170" r="8" fill="green"/>
</g>

<!-- Company Name: Gamma -->
<g transform="translate(80,30)">
<path
  d="m0,320 
    l40,-80 40,-20  40,100 40,-20
     40,40  40,-120 40,-40 40,80
     40,-80 40,120  40,-80 40,-30
     40,80  40,-120 40,40" 
  stroke-width="6" stroke="blue"
  style="fill:none;fill-opacity:1;"/>
</g>

<!-- Vertex circles (Gamma) -->
<g transform="translate(80,30)">
<circle cx="0"   cy="320" r="8" fill="blue"/>
<circle cx="40"  cy="240" r="8" fill="blue"/>
<circle cx="80"  cy="220" r="8" fill="blue"/>
<circle cx="120" cy="320" r="8" fill="blue"/>
<circle cx="160" cy="300" r="8" fill="blue"/>
<circle cx="200" cy="340" r="8" fill="blue"/>
<circle cx="240" cy="220" r="8" fill="blue"/>
<circle cx="280" cy="180" r="8" fill="blue"/>
<circle cx="320" cy="260" r="8" fill="blue"/>
<circle cx="360" cy="180" r="8" fill="blue"/>
<circle cx="400" cy="300" r="8" fill="blue"/>
<circle cx="440" cy="220" r="8" fill="blue"/>
<circle cx="480" cy="190" r="8" fill="blue"/>
<circle cx="520" cy="270" r="8" fill="blue"/>
<circle cx="560" cy="150" r="8" fill="blue"/>
<circle cx="600" cy="190" r="8" fill="blue"/>
</g>

<!-- *** company legend *** -->
<g transform="translate(720,100)">
  <text id="verticalLabel" x="0" y="0" 
        fill="red" 
        font-size="18">
        LEGEND
  </text>

  <rect 
     fill="red"
     x="0" y="40" width="20" height="20">
  </rect>

  <text id="verticalLabel" x="40" y="60" 
        fill="red" 
        font-size="18">
        Alpha
  </text>

  <rect 
     fill="green"
     x="0" y="80" width="20" height="20">
  </rect>

  <text id="verticalLabel" x="40" y="100" 
        fill="green" 
        font-size="18">
        Beta
  </text>

  <rect 
     fill="blue"
     x="0" y="120" width="20" height="20">
  </rect>

  <text id="verticalLabel" x="40" y="140" 
        fill="blue" 
        font-size="18">
        Gamma
  </text>
</g>

</svg>

