<?xml version="1.0" encoding="iso-8859-1"?>
<!DOCTYPE svg PUBLIC "-//W3C//DTD SVG 20001102//EN" 
 "http://www.w3.org/TR/2000/CR-SVG-20001102/DTD/svg-20001102.dtd"> 

<svg width="100%" height="100%"> 
  <defs>
  <pattern id="gridPattern" 
           width="40" height="40"
           patternUnits="userSpaceOnUse">

     <rect x="0" y="0" 
           width="40" height="40"
           style="fill:none;stroke:blue;
           stroke-width:1;fill-opacity:.5;"/>
  </pattern>
  </defs>

<!-- *** render background grid *** -->
<g transform="translate(80,30)">
  <rect 
     fill="url(#gridPattern)"
     style="stroke:red;fill-opacity:.2" 
     x="0" y="0" width="600" height="400">
  </rect>
</g>

<!-- *** label vertical axis *** -->
<g transform="translate(30,400)">
  <text id="verticalLabel" x="0" y="0" 
        transform="rotate(-90)"
        fill="red" 
        font-size="18">
        Number of PCs Sold (thousands) 
  </text>
</g>

<!-- *** unit label (vertical axis) *** -->
<g transform="translate(80,450)">
  <text id="horizontalLabel" x="0" y="0" 
        fill="blue" fill-opacity="1" 
        font-size="18">00</text>
</g>

<g transform="translate(50,400)">
  <text id="horizontalLabel" x="0" y="0" 
        fill="blue" fill-opacity="1" 
        font-size="18">10</text>
</g>

<g transform="translate(50,360)">
  <text id="horizontalLabel" x="0" y="0" 
        fill="blue" fill-opacity="1" 
        font-size="18">15</text>
</g>

<g transform="translate(50,320)">
  <text id="horizontalLabel" x="0" y="0" 
        fill="blue" fill-opacity="1" 
        font-size="18">20</text>
</g>

<g transform="translate(50,280)">
  <text id="horizontalLabel" x="0" y="0" 
        fill="blue" fill-opacity="1" 
        font-size="18">25</text>
</g>

<g transform="translate(50,240)">
  <text id="horizontalLabel" x="0" y="0" 
        fill="blue" fill-opacity="1" 
        font-size="18">30</text>
</g>

<g transform="translate(50,200)">
  <text id="horizontalLabel" x="0" y="0" 
        fill="blue" fill-opacity="1" 
        font-size="18">35</text>
</g>

<g transform="translate(50,160)">
  <text id="horizontalLabel" x="0" y="0" 
        fill="blue" fill-opacity="1" 
        font-size="18">40</text>
</g>

<g transform="translate(50,120)">
  <text id="horizontalLabel" x="0" y="0" 
        fill="blue" fill-opacity="1" 
        font-size="18">45</text>
</g>

<g transform="translate(50,80)">
  <text id="horizontalLabel" x="0" y="0" 
        fill="blue" fill-opacity="1" 
        font-size="18">50</text>
</g>

<g transform="translate(50,40)">
  <text id="horizontalLabel" x="0" y="0" 
        fill="blue" fill-opacity="1" 
        font-size="18">55</text>
</g>

<!-- *** label horizontal axis *** -->
<g transform="translate(300,500)">
  <text id="horizontalLabel" x="0" y="0" 
        fill="red" fill-opacity="1" 
        font-size="18">
        Current Year
  </text>
</g>

<!-- *** unit label (horizontal axis) *** -->
<g transform="translate(80,450)">
  <text id="horizontalLabel" x="0" y="0" 
        fill="blue" fill-opacity="1" 
        font-size="18">00</text>
</g>

<g transform="translate(120,450)">
  <text id="horizontalLabel" x="0" y="0" 
        fill="blue" fill-opacity="1" 
        font-size="18">01</text>
</g>

<g transform="translate(160,450)">
  <text id="horizontalLabel" x="0" y="0" 
        fill="blue" fill-opacity="1" 
        font-size="18">02</text>
</g>

<g transform="translate(200,450)">
  <text id="horizontalLabel" x="0" y="0" 
        fill="blue" fill-opacity="1" 
        font-size="18">03</text>
</g>

<g transform="translate(240,450)">
  <text id="horizontalLabel" x="0" y="0" 
        fill="blue" fill-opacity="1" 
        font-size="18">04</text>
</g>

<g transform="translate(280,450)">
  <text id="horizontalLabel" x="0" y="0" 
        fill="blue" fill-opacity="1" 
        font-size="18">05</text>
</g>

<g transform="translate(320,450)">
  <text id="horizontalLabel" x="0" y="0" 
        fill="blue" fill-opacity="1" 
        font-size="18">06</text>
</g>

<g transform="translate(360,450)">
  <text id="horizontalLabel" x="0" y="0" 
        fill="blue" fill-opacity="1" 
        font-size="18">07</text>
</g>

<g transform="translate(400,450)">
  <text id="horizontalLabel" x="0" y="0" 
        fill="blue" fill-opacity="1" 
        font-size="18">08</text>
</g>

<g transform="translate(440,450)">
  <text id="horizontalLabel" x="0" y="0" 
        fill="blue" fill-opacity="1" 
        font-size="18">09</text>
</g>

<g transform="translate(480,450)">
  <text id="horizontalLabel" x="0" y="0" 
        fill="blue" fill-opacity="1" 
        font-size="18">10</text>
</g>

<g transform="translate(520,450)">
  <text id="horizontalLabel" x="0" y="0" 
        fill="blue" fill-opacity="1" 
        font-size="18">11</text>
</g>

<g transform="translate(560,450)">
  <text id="horizontalLabel" x="0" y="0" 
        fill="blue" fill-opacity="1" 
        font-size="18">12</text>
</g>

<g transform="translate(600,450)">
  <text id="horizontalLabel" x="0" y="0" 
        fill="blue" fill-opacity="1" 
        font-size="18">13</text>
</g>

<g transform="translate(640,450)">
  <text id="horizontalLabel" x="0" y="0" 
        fill="blue" fill-opacity="1" 
        font-size="18">14</text>
</g>


<!-- *** render line graph *** -->
<g transform="translate(80,30)">
<path
  d="m0,320 
    l40,-40 40,-80  40,40  40,-80
     40,40  40,-120 40,-40 40,80
     40,-80 40,120  40,40  40,80
     40,80  40,-120 40,40" 
  style="fill:none;stroke:green;fill-opacity:1;"/>
</g>

<!-- Vertex circles -->
<g transform="translate(80,30)">
<circle cx="0"   cy="320" r="4" fill="red"/>
<circle cx="40"  cy="280" r="4" fill="red"/>
<circle cx="80"  cy="200" r="4" fill="red"/>
<circle cx="120" cy="240" r="4" fill="red"/>
<circle cx="160" cy="160" r="4" fill="red"/>
<circle cx="200" cy="200" r="4" fill="red"/>
<circle cx="240" cy="80"  r="4" fill="red"/>
<circle cx="280" cy="40"  r="4" fill="red"/>
<circle cx="320" cy="120" r="4" fill="red"/>
<circle cx="360" cy="40"  r="4" fill="red"/>
<circle cx="400" cy="160" r="4" fill="red"/>
<circle cx="440" cy="200" r="4" fill="red"/>
<circle cx="480" cy="280" r="4" fill="red"/>
<circle cx="520" cy="360" r="4" fill="red"/>
<circle cx="560" cy="240" r="4" fill="red"/>
<circle cx="600" cy="280" r="4" fill="red"/>
</g>

</svg>
